<svg xmlns="http://www.w3.org/2000/svg" width="50.369" height="20" viewBox="0 0 15.369 8.094">
  <path id="path3188" d="M.909,7.937V7.63H16.278v.615H.909V7.937Zm0-1.255V6.375H16.278v.615H.909V6.682Zm0-1.242V5.145H16.278v.589H.909V5.44Zm0-3.112V.15H16.278V.765H7.057v.64h9.222V2.02H7.057v.64h9.222v.589H7.057v.64h9.222V4.5H.909V2.327ZM1.376,4.2c.04-.034.05-.034.09,0,.094.081.109.079.078-.008s-.023-.087.046-.142l.074-.06h-.1c-.087,0-.1-.008-.112-.077-.008-.042-.024-.077-.035-.077s-.026.035-.035.077c-.014.069-.025.077-.112.077h-.1l.074.06c.069.055.072.066.046.142s-.016.089.078.008ZM2.4,4.2c.04-.034.05-.034.09,0,.094.081.109.079.078-.008s-.023-.087.046-.142l.074-.06h-.1c-.087,0-.1-.008-.112-.077-.008-.042-.024-.077-.035-.077s-.026.035-.035.077c-.014.069-.025.077-.112.077H2.2l.074.06c.069.055.072.066.046.142s-.016.089.078.008Zm1.025,0c.04-.034.05-.034.09,0,.094.081.109.079.078-.008s-.023-.087.046-.142l.074-.06h-.1c-.087,0-.1-.008-.112-.077-.008-.042-.024-.077-.035-.077s-.026.035-.035.077c-.014.069-.025.077-.112.077h-.1l.074.06c.069.055.072.066.046.142S3.332,4.283,3.426,4.2Zm1.025,0c.04-.034.05-.034.09,0,.094.081.109.079.078-.008s-.023-.087.046-.142l.074-.06h-.1c-.087,0-.1-.008-.112-.077-.008-.042-.024-.077-.035-.077s-.026.035-.035.077c-.014.069-.025.077-.112.077h-.1l.074.06c.069.055.072.066.046.142S4.356,4.283,4.45,4.2Zm1.025,0c.04-.034.05-.034.09,0,.094.081.109.079.078-.008s-.023-.087.046-.142l.074-.06h-.1c-.087,0-.1-.008-.112-.077-.008-.042-.024-.077-.035-.077s-.026.035-.035.077c-.014.069-.025.077-.112.077h-.1l.074.06c.069.055.072.066.046.142S5.381,4.283,5.475,4.2ZM6.5,4.2c.04-.034.05-.034.09,0,.094.081.109.079.078-.008s-.023-.087.046-.142l.074-.06h-.1c-.087,0-.1-.008-.112-.077-.008-.042-.024-.077-.035-.077s-.026.035-.035.077c-.014.069-.025.077-.112.077H6.3l.074.06c.069.055.072.066.046.142S6.406,4.283,6.5,4.2ZM1.889,3.767c.04-.034.05-.034.09,0,.094.081.109.079.078-.008s-.023-.087.046-.142l.074-.06H2.083c-.084,0-.1-.009-.111-.077-.009-.042-.027-.077-.038-.077S1.9,3.438,1.9,3.48c-.015.068-.027.077-.111.077H1.69l.074.06c.069.055.072.066.046.142s-.016.089.078.008Zm1.025,0c.04-.034.05-.034.09,0,.094.081.109.079.078-.008s-.023-.087.046-.142l.074-.06H3.107c-.084,0-.1-.009-.111-.077C2.987,3.438,2.97,3.4,2.958,3.4s-.029.035-.038.077c-.015.068-.027.077-.111.077H2.715l.074.06c.069.055.072.066.046.142s-.016.089.078.008Zm1.025,0c.04-.034.05-.034.09,0,.094.081.109.079.078-.008s-.023-.087.046-.142l.074-.06H4.132c-.084,0-.1-.009-.111-.077-.009-.042-.027-.077-.038-.077s-.029.035-.038.077c-.015.068-.027.077-.111.077H3.739l.074.06c.069.055.072.066.046.142S3.844,3.847,3.938,3.767Zm1.025,0c.04-.034.05-.034.09,0,.094.081.109.079.078-.008s-.023-.087.046-.142l.074-.06H5.157c-.084,0-.1-.009-.111-.077-.009-.042-.027-.077-.038-.077s-.029.035-.038.077c-.015.068-.027.077-.111.077H4.764l.074.06c.069.055.072.066.046.142S4.869,3.847,4.963,3.767Zm1.025,0c.04-.034.05-.034.09,0,.094.081.109.079.078-.008s-.023-.087.046-.142l.074-.06H6.181c-.084,0-.1-.009-.111-.077-.009-.042-.027-.077-.038-.077S6,3.438,5.994,3.48c-.015.068-.027.077-.111.077H5.789l.074.06c.069.055.072.066.046.142S5.893,3.847,5.987,3.767ZM1.376,3.331c.04-.034.05-.034.09,0,.094.081.109.079.078-.008s-.023-.087.046-.142l.074-.06H1.571c-.084,0-.1-.009-.111-.077C1.45,3,1.433,2.968,1.421,2.968s-.029.035-.038.077c-.015.068-.027.077-.111.077H1.178l.074.06c.069.055.072.066.046.142s-.016.089.078.008Zm1.025,0c.04-.034.05-.034.09,0,.093.08.107.078.081-.011s-.017-.09.046-.141l.071-.058H2.6c-.084,0-.1-.009-.111-.077-.009-.042-.027-.077-.038-.077s-.029.035-.038.077c-.015.068-.027.077-.111.077H2.2l.074.06c.069.055.072.066.046.142s-.016.089.078.008Zm1.025,0c.04-.034.05-.034.09,0,.094.081.109.079.078-.008s-.023-.087.046-.142l.074-.06H3.62c-.084,0-.1-.009-.111-.077C3.5,3,3.482,2.968,3.47,2.968s-.029.035-.038.077c-.015.068-.027.077-.111.077H3.227l.071.058c.064.052.068.066.046.141s-.012.09.081.011Zm1.025,0c.04-.034.05-.034.09,0,.093.08.107.078.081-.011s-.017-.09.046-.141l.071-.058H4.644c-.084,0-.1-.009-.111-.077C4.524,3,4.507,2.968,4.5,2.968s-.029.035-.038.077c-.015.068-.027.077-.111.077H4.252l.074.06c.069.055.072.066.046.142s-.016.089.078.008Zm1.025,0c.04-.034.05-.034.09,0,.094.081.109.079.078-.008s-.023-.087.046-.142l.074-.06H5.669c-.084,0-.1-.009-.111-.077C5.549,3,5.532,2.968,5.52,2.968s-.029.035-.038.077c-.015.068-.027.077-.111.077H5.276l.071.058c.064.052.068.066.046.141s-.012.09.081.011Zm1.025,0c.04-.034.05-.034.09,0,.094.081.109.079.078-.008s-.023-.087.046-.142l.074-.06H6.694c-.084,0-.1-.009-.111-.077-.009-.042-.027-.077-.038-.077s-.029.035-.038.077c-.015.068-.027.077-.111.077H6.3l.074.06c.069.055.072.066.046.142S6.406,3.412,6.5,3.331ZM1.889,2.9c.04-.034.05-.034.09,0,.094.081.109.079.078-.008S2.034,2.8,2.1,2.746l.074-.06H2.083c-.084,0-.1-.009-.111-.077-.009-.042-.027-.077-.038-.077s-.029.035-.038.077c-.015.068-.027.077-.111.077H1.69l.074.06c.069.055.072.066.046.142s-.016.089.078.008Zm2.049,0c.04-.034.05-.034.09,0,.094.081.109.079.078-.008s-.023-.087.046-.142l.074-.06H4.132c-.084,0-.1-.009-.111-.077-.009-.042-.027-.077-.038-.077s-.029.035-.038.077c-.015.068-.027.077-.111.077H3.739l.074.06c.069.055.072.066.046.142s-.016.089.078.008Zm2.049,0c.04-.034.05-.034.09,0,.094.081.109.079.078-.008S6.132,2.8,6.2,2.746l.074-.06H6.181c-.084,0-.1-.009-.111-.077-.009-.042-.027-.077-.038-.077s-.029.035-.038.077c-.015.068-.027.077-.111.077H5.789l.074.06c.069.055.072.066.046.142s-.016.089.078.008Zm-3.076,0c.044-.039.05-.039.094,0,.068.061.087.052.069-.031-.013-.061,0-.083.056-.127L3.2,2.687H3.107c-.083,0-.1-.01-.111-.078-.009-.042-.027-.077-.038-.077s-.029.035-.038.077c-.015.068-.028.077-.111.078H2.715l.072.054c.059.044.069.066.056.127C2.824,2.952,2.843,2.961,2.911,2.9Zm2.049,0c.044-.039.05-.039.094,0,.068.061.087.052.069-.031-.013-.061,0-.083.056-.127l.072-.054H5.157c-.083,0-.1-.01-.111-.078-.009-.042-.027-.077-.038-.077s-.029.035-.038.077c-.015.068-.028.077-.111.078H4.764l.072.054c.059.044.069.066.056.127-.018.084,0,.093.069.031ZM1.374,2.464c.044-.039.05-.039.094,0,.068.061.087.052.069-.032-.013-.06,0-.084.053-.128l.069-.054H1.568c-.08,0-.093-.009-.108-.077C1.45,2.131,1.433,2.1,1.421,2.1s-.029.035-.038.077c-.015.068-.028.077-.108.077H1.184l.069.054c.056.044.066.068.053.128-.018.084,0,.093.069.032Zm1.025,0c.044-.039.05-.039.094,0,.068.061.087.052.069-.032-.013-.06,0-.084.053-.128l.069-.054H2.592c-.08,0-.093-.009-.108-.077-.009-.042-.027-.077-.038-.077s-.029.035-.038.077c-.015.068-.028.077-.108.077H2.208l.069.054c.056.044.066.068.053.128-.018.084,0,.093.069.032Zm1.025,0c.044-.039.05-.039.094,0,.068.061.088.052.069-.032-.013-.06,0-.084.053-.128l.069-.054H3.617c-.08,0-.093-.009-.108-.077C3.5,2.131,3.482,2.1,3.47,2.1s-.029.035-.038.077c-.015.068-.028.077-.108.077H3.233L3.3,2.3c.056.044.066.068.053.128-.018.084,0,.093.069.032Zm1.025,0c.044-.039.05-.039.094,0,.068.061.087.052.069-.032-.013-.06,0-.084.053-.128l.069-.054H4.641c-.08,0-.093-.009-.108-.077C4.524,2.131,4.507,2.1,4.5,2.1s-.029.035-.038.077c-.015.068-.028.077-.108.077H4.258l.069.054c.056.044.066.068.053.128-.018.084,0,.093.069.032Zm1.025,0c.044-.039.05-.039.094,0,.068.061.087.052.069-.032-.013-.06,0-.084.053-.128l.069-.054H5.666c-.08,0-.093-.009-.108-.077C5.549,2.131,5.531,2.1,5.52,2.1s-.029.035-.038.077c-.015.068-.028.077-.108.077H5.282l.069.054c.056.044.066.068.053.128-.018.084,0,.093.069.032Zm1.025,0c.044-.039.05-.039.094,0,.068.061.087.052.069-.032-.013-.06,0-.084.053-.128l.069-.054H6.691c-.08,0-.093-.009-.108-.077-.009-.042-.027-.077-.038-.077s-.029.035-.038.077c-.015.068-.028.077-.108.077H6.307l.069.054c.056.044.066.068.053.128-.018.084,0,.093.069.032ZM1.889,2.025c.04-.034.05-.034.09,0,.094.081.109.079.078-.008s-.022-.087.041-.142l.069-.06H2.078c-.078,0-.091-.009-.106-.077-.022-.1-.055-.1-.077,0-.015.067-.028.077-.106.077H1.7l.069.06c.063.055.067.067.041.142s-.016.089.078.008Zm1.025,0c.04-.034.05-.034.09,0,.094.081.109.079.078-.008s-.022-.087.041-.142l.069-.06H3.1c-.078,0-.091-.009-.106-.077-.022-.1-.055-.1-.077,0-.015.067-.028.077-.106.077H2.725l.069.06c.063.055.067.067.041.142S2.82,2.105,2.913,2.025Zm1.025,0c.04-.034.05-.034.09,0,.094.081.109.079.078-.008s-.022-.087.041-.142l.069-.06H4.127c-.078,0-.091-.009-.106-.077-.022-.1-.055-.1-.077,0-.015.067-.028.077-.106.077H3.749l.069.06c.063.055.067.067.041.142s-.016.089.078.008Zm1.025,0c.04-.034.05-.034.09,0,.094.081.109.079.078-.008s-.022-.087.041-.142l.069-.06H5.152c-.078,0-.091-.009-.106-.077-.022-.1-.055-.1-.077,0-.015.067-.028.077-.106.077H4.774l.069.06c.063.055.067.067.041.142S4.869,2.105,4.963,2.025Zm1.025,0c.04-.034.05-.034.09,0,.094.081.109.079.078-.008s-.022-.087.041-.142l.069-.06H6.176c-.078,0-.091-.009-.106-.077-.022-.1-.055-.1-.077,0-.015.067-.028.077-.106.077H5.8l.069.06c.063.055.067.067.041.142S5.893,2.105,5.987,2.025ZM1.5,1.609l.076.054-.029-.082c-.026-.075-.023-.087.041-.142l.069-.06H1.565c-.078,0-.091-.009-.106-.077-.022-.1-.055-.1-.077,0-.015.067-.028.077-.106.077H1.188l.069.06c.063.055.067.067.041.142l-.029.082.076-.054.076-.054.076.054Zm1.025,0,.076.054-.029-.082c-.026-.075-.023-.087.041-.142l.069-.06H2.59c-.078,0-.091-.009-.106-.077-.022-.1-.055-.1-.077,0-.015.067-.028.077-.106.077H2.212l.069.06c.063.055.067.067.041.142l-.029.082.076-.054.076-.054.076.054Zm1.025,0,.076.054-.029-.082c-.026-.075-.023-.087.041-.142l.069-.06H3.615c-.078,0-.091-.009-.106-.077-.022-.1-.055-.1-.077,0-.015.067-.028.077-.106.077H3.237l.069.06c.063.055.067.067.041.142l-.029.082.076-.054.076-.054.076.054Zm1.025,0,.076.054-.029-.082c-.026-.075-.023-.087.041-.142l.069-.06H4.639c-.078,0-.091-.009-.106-.077-.022-.1-.055-.1-.077,0-.015.067-.028.077-.106.077H4.262l.069.06c.063.055.067.067.041.142l-.029.082.076-.054.076-.054.076.054Zm1.025,0,.076.054-.029-.082c-.026-.075-.023-.087.041-.142l.069-.06H5.664c-.078,0-.091-.009-.106-.077-.022-.1-.055-.1-.077,0-.015.067-.028.077-.106.077H5.286l.069.06c.063.055.067.067.041.142l-.029.082.076-.054.076-.054.076.054Zm1.025,0,.076.054-.029-.082c-.026-.075-.023-.087.041-.142l.069-.06H6.689c-.078,0-.091-.009-.106-.077-.022-.1-.055-.1-.077,0-.015.067-.028.077-.106.077H6.311l.069.06c.063.055.067.067.041.142l-.029.082.076-.054.076-.054.076.054ZM1.887,1.158c.044-.039.05-.039.094,0,.068.061.087.052.069-.032-.013-.06,0-.084.053-.128L2.171.944H2.077c-.084,0-.1-.008-.109-.077C1.96.825,1.944.79,1.933.79S1.907.825,1.9.867c-.014.069-.025.077-.109.077H1.7L1.765,1c.056.044.066.068.053.128-.018.084,0,.093.069.032Zm1.025,0c.044-.039.05-.039.094,0,.068.061.087.052.069-.032-.013-.06,0-.084.053-.128L3.2.944H3.1c-.084,0-.1-.008-.109-.077C2.984.825,2.969.79,2.958.79s-.026.035-.035.077C2.91.936,2.9.944,2.814.944H2.721L2.79,1c.056.044.066.068.053.128-.018.084,0,.093.069.032Zm1.025,0c.044-.039.05-.039.094,0,.068.061.088.052.069-.032-.013-.06,0-.084.053-.128L4.22.944H4.126c-.084,0-.1-.008-.109-.077C4.009.825,3.993.79,3.983.79s-.026.035-.035.077c-.014.069-.025.077-.109.077H3.745L3.814,1c.056.044.066.068.053.128-.018.084,0,.093.069.032Zm1.025,0c.044-.039.05-.039.094,0,.068.061.087.052.069-.032-.013-.06,0-.084.053-.128L5.245.944H5.151c-.084,0-.1-.008-.109-.077C5.033.825,5.018.79,5.007.79s-.026.035-.035.077c-.014.069-.025.077-.109.077H4.77L4.839,1c.056.044.066.068.053.128-.018.084,0,.093.069.032Zm1.025,0c.044-.039.05-.039.094,0,.068.061.087.052.069-.032-.013-.06,0-.084.053-.128L6.269.944H6.176c-.084,0-.1-.008-.109-.077C6.058.825,6.043.79,6.032.79S6.006.825,6,.867c-.014.069-.025.077-.109.077H5.794L5.863,1c.056.044.066.068.053.128-.018.084,0,.093.069.032ZM1.488.731l.067.044L1.538.7C1.524.63,1.532.608,1.59.563L1.659.509H1.567C1.487.509,1.474.5,1.46.432c-.022-.1-.055-.1-.077,0C1.368.5,1.355.509,1.275.509H1.184l.069.054C1.31.608,1.319.63,1.3.7L1.287.775,1.354.731c.064-.042.071-.042.134,0Zm1.025,0L2.58.775,2.563.7C2.548.63,2.557.608,2.614.563L2.683.509H2.592C2.512.509,2.5.5,2.484.432c-.022-.1-.055-.1-.077,0C2.392.5,2.38.509,2.3.509H2.208l.069.054c.058.045.066.067.052.133L2.311.775,2.379.731c.064-.042.071-.042.134,0Zm1.025,0L3.6.775,3.587.7C3.573.63,3.581.608,3.639.563L3.708.509H3.617c-.08,0-.093-.009-.108-.077-.022-.1-.055-.1-.077,0C3.417.5,3.4.509,3.324.509H3.233L3.3.563c.058.045.066.067.052.133L3.336.775,3.4.731c.064-.042.071-.042.134,0Zm1.025,0,.067.044L4.612.7C4.6.63,4.606.608,4.664.563L4.732.509H4.641c-.08,0-.093-.009-.108-.077-.022-.1-.055-.1-.077,0C4.442.5,4.429.509,4.349.509H4.258l.069.054c.058.045.066.067.052.133L4.361.775,4.428.731c.064-.042.071-.042.134,0Zm1.025,0,.067.044L5.637.7C5.622.63,5.63.608,5.688.563L5.757.509H5.666c-.08,0-.093-.009-.108-.077-.022-.1-.055-.1-.077,0C5.466.5,5.454.509,5.373.509H5.282l.069.054C5.409.608,5.417.63,5.4.7L5.385.775,5.452.731c.064-.042.071-.042.134,0Zm1.025,0,.067.044L6.661.7C6.647.63,6.655.608,6.713.563L6.782.509H6.691C6.61.509,6.6.5,6.583.432c-.022-.1-.055-.1-.077,0C6.491.5,6.478.509,6.4.509H6.307l.069.054c.058.045.066.067.052.133L6.41.775,6.477.731c.064-.042.071-.042.134,0Z" transform="translate(-0.909 -0.15)"/>
</svg>
